<mxfile host="app.diagrams.net" modified="2023-12-27T11:44:17.425Z" agent="Mozilla/5.0 (Macintosh; Intel Mac OS X 10_15_7) AppleWebKit/537.36 (KHTML, like Gecko) Chrome/120.0.0.0 Safari/537.36" etag="RJVvu0KqCf3-Wj3XyzpR" version="22.1.12" type="github" pages="4">
  <diagram name="第 1 页" id="zcEkAVC8MfN1Afy51CR9">
    <mxGraphModel dx="1137" dy="599" grid="1" gridSize="10" guides="1" tooltips="1" connect="1" arrows="1" fold="1" page="1" pageScale="1" pageWidth="827" pageHeight="1169" math="0" shadow="0">
      <root>
        <mxCell id="0" />
        <mxCell id="1" parent="0" />
        <mxCell id="WgUi3EhuOoZ6_M0bIkky-1" value="brand/home/products/about us&amp;nbsp; &amp;nbsp; &amp;nbsp; &amp;nbsp; &amp;nbsp; &amp;nbsp; &amp;nbsp; &amp;nbsp; &amp;nbsp; &amp;nbsp; &amp;nbsp; &amp;nbsp; &amp;nbsp; &amp;nbsp; &amp;nbsp; &amp;nbsp; &amp;nbsp; &amp;nbsp; &amp;nbsp; &amp;nbsp; &amp;nbsp; &amp;nbsp; &amp;nbsp; &amp;nbsp; &amp;nbsp; &amp;nbsp; &amp;nbsp; &amp;nbsp; &amp;nbsp; &amp;nbsp; &amp;nbsp; &amp;nbsp; &amp;nbsp; &amp;nbsp; &amp;nbsp; &amp;nbsp; &amp;nbsp; &amp;nbsp; &amp;nbsp; &amp;nbsp; &amp;nbsp; &amp;nbsp; &amp;nbsp; &amp;nbsp; &amp;nbsp; &amp;nbsp; &amp;nbsp; &amp;nbsp; &amp;nbsp; &amp;nbsp; &amp;nbsp; &amp;nbsp; &amp;nbsp; &amp;nbsp; &amp;nbsp; login" style="rounded=0;whiteSpace=wrap;html=1;" vertex="1" parent="1">
          <mxGeometry x="60" y="20" width="710" height="60" as="geometry" />
        </mxCell>
        <mxCell id="WgUi3EhuOoZ6_M0bIkky-2" value="img" style="rounded=0;whiteSpace=wrap;html=1;" vertex="1" parent="1">
          <mxGeometry x="200" y="90" width="430" height="150" as="geometry" />
        </mxCell>
        <mxCell id="WgUi3EhuOoZ6_M0bIkky-3" value="search" style="rounded=0;whiteSpace=wrap;html=1;" vertex="1" parent="1">
          <mxGeometry x="250" y="250" width="340" height="60" as="geometry" />
        </mxCell>
        <mxCell id="WgUi3EhuOoZ6_M0bIkky-5" value="search output ：product list/check option" style="rounded=0;whiteSpace=wrap;html=1;" vertex="1" parent="1">
          <mxGeometry x="250" y="310" width="340" height="60" as="geometry" />
        </mxCell>
        <mxCell id="WgUi3EhuOoZ6_M0bIkky-7" value="ing cards" style="rounded=0;whiteSpace=wrap;html=1;" vertex="1" parent="1">
          <mxGeometry x="250" y="380" width="340" height="60" as="geometry" />
        </mxCell>
        <mxCell id="WgUi3EhuOoZ6_M0bIkky-8" value="pro cards" style="rounded=0;whiteSpace=wrap;html=1;" vertex="1" parent="1">
          <mxGeometry x="250" y="540" width="340" height="60" as="geometry" />
        </mxCell>
        <mxCell id="WgUi3EhuOoZ6_M0bIkky-9" value="user list" style="rounded=0;whiteSpace=wrap;html=1;" vertex="1" parent="1">
          <mxGeometry x="250" y="620" width="340" height="60" as="geometry" />
        </mxCell>
        <mxCell id="WgUi3EhuOoZ6_M0bIkky-11" value="" style="endArrow=none;html=1;rounded=0;" edge="1" parent="1">
          <mxGeometry width="50" height="50" relative="1" as="geometry">
            <mxPoint y="790" as="sourcePoint" />
            <mxPoint x="820" y="790" as="targetPoint" />
          </mxGeometry>
        </mxCell>
        <mxCell id="WgUi3EhuOoZ6_M0bIkky-12" value="footer" style="rounded=0;whiteSpace=wrap;html=1;" vertex="1" parent="1">
          <mxGeometry x="20" y="690" width="800" height="60" as="geometry" />
        </mxCell>
        <mxCell id="fjJRO1vlOgrQLMmGjgvZ-2" value="引导上传更多危害物质" style="whiteSpace=wrap;html=1;" vertex="1" parent="1">
          <mxGeometry x="460" y="440" width="130" height="60" as="geometry" />
        </mxCell>
      </root>
    </mxGraphModel>
  </diagram>
  <diagram id="IjbLSZ3G69Qxlq1X9R2d" name="第 2 页">
    <mxGraphModel dx="1194" dy="629" grid="1" gridSize="10" guides="1" tooltips="1" connect="1" arrows="1" fold="1" page="1" pageScale="1" pageWidth="827" pageHeight="1169" math="0" shadow="0">
      <root>
        <mxCell id="0" />
        <mxCell id="1" parent="0" />
        <mxCell id="RZmnKudjVprxBLOnWIU5-1" value="brand/home/iproducts/about us&amp;nbsp; &amp;nbsp; &amp;nbsp; &amp;nbsp; &amp;nbsp; &amp;nbsp; &amp;nbsp; &amp;nbsp; &amp;nbsp; &amp;nbsp; &amp;nbsp; &amp;nbsp; &amp;nbsp; &amp;nbsp; &amp;nbsp; &amp;nbsp; &amp;nbsp; &amp;nbsp; &amp;nbsp; &amp;nbsp; &amp;nbsp; &amp;nbsp; &amp;nbsp; &amp;nbsp; &amp;nbsp; &amp;nbsp; &amp;nbsp; &amp;nbsp; &amp;nbsp; &amp;nbsp; &amp;nbsp; &amp;nbsp; &amp;nbsp; &amp;nbsp; &amp;nbsp; &amp;nbsp; &amp;nbsp; &amp;nbsp; &amp;nbsp; &amp;nbsp; &amp;nbsp; &amp;nbsp; &amp;nbsp; &amp;nbsp; &amp;nbsp; &amp;nbsp; &amp;nbsp; &amp;nbsp; &amp;nbsp; &amp;nbsp; &amp;nbsp; &amp;nbsp; &amp;nbsp; &amp;nbsp; &amp;nbsp; login" style="rounded=0;whiteSpace=wrap;html=1;" vertex="1" parent="1">
          <mxGeometry x="40" y="102" width="710" height="60" as="geometry" />
        </mxCell>
        <mxCell id="RZmnKudjVprxBLOnWIU5-2" value="check" style="text;html=1;align=center;verticalAlign=middle;resizable=0;points=[];autosize=1;strokeColor=none;fillColor=none;" vertex="1" parent="1">
          <mxGeometry x="365" y="70" width="50" height="30" as="geometry" />
        </mxCell>
        <mxCell id="RZmnKudjVprxBLOnWIU5-3" value="input：安全；结论，可以在海边使用/含有害成分：名称、介绍；结论，不推荐使用" style="rounded=0;whiteSpace=wrap;html=1;" vertex="1" parent="1">
          <mxGeometry x="140" y="182" width="530" height="60" as="geometry" />
        </mxCell>
        <mxCell id="RZmnKudjVprxBLOnWIU5-4" value="引导添加到产品库：input栏目" style="rounded=0;whiteSpace=wrap;html=1;" vertex="1" parent="1">
          <mxGeometry x="240" y="252" width="310" height="60" as="geometry" />
        </mxCell>
        <mxCell id="RZmnKudjVprxBLOnWIU5-5" value="footer" style="rounded=0;whiteSpace=wrap;html=1;" vertex="1" parent="1">
          <mxGeometry x="40" y="332" width="760" height="60" as="geometry" />
        </mxCell>
      </root>
    </mxGraphModel>
  </diagram>
  <diagram id="-9IK-OogOmV4v1UKZgLu" name="第 3 页">
    <mxGraphModel dx="1194" dy="629" grid="1" gridSize="10" guides="1" tooltips="1" connect="1" arrows="1" fold="1" page="1" pageScale="1" pageWidth="827" pageHeight="1169" math="0" shadow="0">
      <root>
        <mxCell id="0" />
        <mxCell id="1" parent="0" />
        <mxCell id="J7dpUnb7shemEBuhaOwZ-1" value="brand/home/products/about us&amp;nbsp; &amp;nbsp; &amp;nbsp; &amp;nbsp; &amp;nbsp; &amp;nbsp; &amp;nbsp; &amp;nbsp; &amp;nbsp; &amp;nbsp; &amp;nbsp; &amp;nbsp; &amp;nbsp; &amp;nbsp; &amp;nbsp; &amp;nbsp; &amp;nbsp; &amp;nbsp; &amp;nbsp; &amp;nbsp; &amp;nbsp; &amp;nbsp; &amp;nbsp; &amp;nbsp; &amp;nbsp; &amp;nbsp; &amp;nbsp; &amp;nbsp; &amp;nbsp; &amp;nbsp; &amp;nbsp; &amp;nbsp; &amp;nbsp; &amp;nbsp; &amp;nbsp; &amp;nbsp; &amp;nbsp; &amp;nbsp; &amp;nbsp; &amp;nbsp; &amp;nbsp; &amp;nbsp; &amp;nbsp; &amp;nbsp; &amp;nbsp; &amp;nbsp; &amp;nbsp; &amp;nbsp; &amp;nbsp; &amp;nbsp; &amp;nbsp; &amp;nbsp; &amp;nbsp; &amp;nbsp; &amp;nbsp; login" style="rounded=0;whiteSpace=wrap;html=1;" vertex="1" parent="1">
          <mxGeometry x="59" y="90" width="710" height="60" as="geometry" />
        </mxCell>
        <mxCell id="J7dpUnb7shemEBuhaOwZ-2" value="products list page" style="text;html=1;align=center;verticalAlign=middle;resizable=0;points=[];autosize=1;strokeColor=none;fillColor=none;" vertex="1" parent="1">
          <mxGeometry x="325" y="20" width="120" height="30" as="geometry" />
        </mxCell>
        <mxCell id="J7dpUnb7shemEBuhaOwZ-3" value="上传组件" style="whiteSpace=wrap;html=1;" vertex="1" parent="1">
          <mxGeometry x="340" y="150" width="120" height="60" as="geometry" />
        </mxCell>
        <mxCell id="bfnJY6YuegxEtat2qol2-1" value="product list/带筛选框：防晒指数、安全性、品牌" style="whiteSpace=wrap;html=1;" vertex="1" parent="1">
          <mxGeometry x="250" y="250" width="300" height="60" as="geometry" />
        </mxCell>
        <mxCell id="bfnJY6YuegxEtat2qol2-2" value="footer" style="whiteSpace=wrap;html=1;" vertex="1" parent="1">
          <mxGeometry x="340" y="370" width="120" height="60" as="geometry" />
        </mxCell>
      </root>
    </mxGraphModel>
  </diagram>
  <diagram name="第 4 页" id="GCpVb8VcLFusuq1Kx2Eo">
    <mxGraphModel dx="1194" dy="629" grid="1" gridSize="10" guides="1" tooltips="1" connect="1" arrows="1" fold="1" page="1" pageScale="1" pageWidth="827" pageHeight="1169" math="0" shadow="0">
      <root>
        <mxCell id="qRsDgB3ANmwXnB2ZltBp-0" />
        <mxCell id="qRsDgB3ANmwXnB2ZltBp-1" parent="qRsDgB3ANmwXnB2ZltBp-0" />
        <mxCell id="qRsDgB3ANmwXnB2ZltBp-2" value="brand/home/products/about us&amp;nbsp; &amp;nbsp; &amp;nbsp; &amp;nbsp; &amp;nbsp; &amp;nbsp; &amp;nbsp; &amp;nbsp; &amp;nbsp; &amp;nbsp; &amp;nbsp; &amp;nbsp; &amp;nbsp; &amp;nbsp; &amp;nbsp; &amp;nbsp; &amp;nbsp; &amp;nbsp; &amp;nbsp; &amp;nbsp; &amp;nbsp; &amp;nbsp; &amp;nbsp; &amp;nbsp; &amp;nbsp; &amp;nbsp; &amp;nbsp; &amp;nbsp; &amp;nbsp; &amp;nbsp; &amp;nbsp; &amp;nbsp; &amp;nbsp; &amp;nbsp; &amp;nbsp; &amp;nbsp; &amp;nbsp; &amp;nbsp; &amp;nbsp; &amp;nbsp; &amp;nbsp; &amp;nbsp; &amp;nbsp; &amp;nbsp; &amp;nbsp; &amp;nbsp; &amp;nbsp; &amp;nbsp; &amp;nbsp; &amp;nbsp; &amp;nbsp; &amp;nbsp; &amp;nbsp; &amp;nbsp; &amp;nbsp; login" style="rounded=0;whiteSpace=wrap;html=1;" vertex="1" parent="qRsDgB3ANmwXnB2ZltBp-1">
          <mxGeometry x="59" y="90" width="710" height="60" as="geometry" />
        </mxCell>
        <mxCell id="qRsDgB3ANmwXnB2ZltBp-3" value="product page" style="text;html=1;align=center;verticalAlign=middle;resizable=0;points=[];autosize=1;strokeColor=none;fillColor=none;" vertex="1" parent="qRsDgB3ANmwXnB2ZltBp-1">
          <mxGeometry x="340" y="20" width="90" height="30" as="geometry" />
        </mxCell>
        <mxCell id="qRsDgB3ANmwXnB2ZltBp-4" value="图片" style="whiteSpace=wrap;html=1;" vertex="1" parent="qRsDgB3ANmwXnB2ZltBp-1">
          <mxGeometry x="59" y="160" width="191" height="160" as="geometry" />
        </mxCell>
        <mxCell id="qRsDgB3ANmwXnB2ZltBp-5" value="product 基本信息：防晒指数、安全性、品牌、成分" style="whiteSpace=wrap;html=1;" vertex="1" parent="qRsDgB3ANmwXnB2ZltBp-1">
          <mxGeometry x="250" y="160" width="520" height="160" as="geometry" />
        </mxCell>
        <mxCell id="qRsDgB3ANmwXnB2ZltBp-6" value="footer" style="whiteSpace=wrap;html=1;" vertex="1" parent="qRsDgB3ANmwXnB2ZltBp-1">
          <mxGeometry x="59" y="480" width="711" height="60" as="geometry" />
        </mxCell>
        <mxCell id="9Co-bAbXQYbq-LE2Gma8-0" value="input：安全；结论，可以在海边使用/含有害成分：名称、介绍；结论，不推荐使用" style="rounded=0;whiteSpace=wrap;html=1;" vertex="1" parent="qRsDgB3ANmwXnB2ZltBp-1">
          <mxGeometry x="59" y="320" width="711" height="160" as="geometry" />
        </mxCell>
      </root>
    </mxGraphModel>
  </diagram>
</mxfile>
